<?xml version="1.0"?>
<svg xmlns="http://www.w3.org/2000/svg" xmlns:xlink="http://www.w3.org/1999/xlink" xmlns:svgjs="http://svgjs.com/svgjs" version="1.1" width="512" height="512" x="0" y="0" viewBox="0 0 24 24" style="enable-background:new 0 0 512 512" xml:space="preserve"><g><path xmlns="http://www.w3.org/2000/svg" d="M23.821,11.181v0C22.943,9.261,19.5,3,12,3S1.057,9.261.179,11.181a1.969,1.969,0,0,0,0,1.64C1.057,14.739,4.5,21,12,21s10.943-6.261,11.821-8.181A1.968,1.968,0,0,0,23.821,11.181ZM12,18a6,6,0,1,1,6-6A6.006,6.006,0,0,1,12,18Z" fill="#4a9b82" data-original="#000000"/><circle xmlns="http://www.w3.org/2000/svg" cx="12" cy="12" r="4" fill="#4a9b82" data-original="#000000"/></g></svg>
