<?xml version="1.0"?>
<svg xmlns="http://www.w3.org/2000/svg" xmlns:xlink="http://www.w3.org/1999/xlink" xmlns:svgjs="http://svgjs.com/svgjs" version="1.1" width="512" height="512" x="0" y="0" viewBox="0 0 24 24" style="enable-background:new 0 0 512 512" xml:space="preserve"><g><path xmlns="http://www.w3.org/2000/svg" d="m9 12a6 6 0 1 0 -6-6 6.006 6.006 0 0 0 6 6zm0-10a4 4 0 1 1 -4 4 4 4 0 0 1 4-4zm9 17v5h-2v-5a3 3 0 0 0 -3-3h-8a3 3 0 0 0 -3 3v5h-2v-5a5.006 5.006 0 0 1 5-5h8a5.006 5.006 0 0 1 5 5zm3.414-9 2.543 2.543-1.414 1.414-2.543-2.543-2.543 2.543-1.414-1.414 2.543-2.543-2.543-2.543 1.414-1.414 2.543 2.543 2.543-2.543 1.414 1.414z" fill="#4a9b82" data-original="#000000"/></g></svg>
