<?xml version="1.0"?>
<svg xmlns="http://www.w3.org/2000/svg" xmlns:xlink="http://www.w3.org/1999/xlink" xmlns:svgjs="http://svgjs.com/svgjs" version="1.1" width="512" height="512" x="0" y="0" viewBox="0 0 24 24" style="enable-background:new 0 0 512 512" xml:space="preserve"><g><path xmlns="http://www.w3.org/2000/svg" d="m21.414 9.957 2.543 2.543-1.414 1.414-2.543-2.543-2.543 2.543-1.414-1.414 2.543-2.543-2.543-2.543 1.414-1.414 2.543 2.543 2.543-2.543 1.414 1.414zm-12.414 2.043a6 6 0 1 0 -6-6 6 6 0 0 0 6 6zm4.043 2h-8.086a4.963 4.963 0 0 0 -4.957 4.957v5.043h18v-5.043a4.963 4.963 0 0 0 -4.957-4.957z" fill="#4a9b82" data-original="#000000"/></g></svg>
